<svg height="609.37605" viewBox="0 0 789.38189 609.37605" width="789.38189" xmlns="http://www.w3.org/2000/svg"><g transform="translate(-205.30906 -145.31197)"><path d="m981.30863 673.98326c-3.3177-26.67814-19.85136-52.96384-45.29423-61.64564a123.86328 123.86328 0 0 1 -.00614 85.04048c-3.90959 10.57529-9.35913 21.9305-5.68164 32.58879 2.28808 6.6319 7.88558 11.70587 14.14246 14.8785 6.25726 3.17262 13.20151 4.68476 20.05886 6.16664l1.34956 1.11616c10.88594-24.581 18.74883-51.4668 15.43113-78.14493z" fill="#f0f0f0"/><path d="m935.76192 612.84207a105.86968 105.86968 0 0 1 26.319 59.58345 45.59092 45.59092 0 0 1 -.51859 14.27515 26.14853 26.14853 0 0 1 -6.50348 12.12824c-2.93125 3.22058-6.30256 6.17542-8.3999 10.05246a16.01082 16.01082 0 0 0 -.78221 13.07063c1.85173 5.31109 5.5014 9.64009 9.21758 13.74945 4.12612 4.56267 8.48415 9.23648 10.23806 15.28536.21251.73291 1.33731.36031 1.12512-.37149-3.0515-10.52402-13.2675-16.50187-18.1395-25.98072-2.27337-4.423-3.22759-9.55792-1.09634-14.22686 1.86369-4.08278 5.33761-7.13282 8.33375-10.36807a27.9025 27.9025 0 0 0 6.80084-11.62188 42.14785 42.14785 0 0 0 1.06552-14.20255 102.71271 102.71271 0 0 0 -7.50152-31.21348 107.74726 107.74726 0 0 0 -19.37431-31.04834c-.50661-.56729-1.2873.32506-.784.88865z" fill="#fff"/><path d="m961.762 665.25515a15.88384 15.88384 0 0 0 12.09074-16.6389c-.06037-.76-1.24414-.70185-1.18369.05912a14.70808 14.70808 0 0 1 -11.2785 15.45463c-.74175.17635-.366 1.30046.37149 1.12512z" fill="#fff"/><path d="m956.76024 697.3917a30.61483 30.61483 0 0 1 -13.67135-17.63188c-.21509-.73213-1.34-.35975-1.12511.37149a31.844 31.844 0 0 0 14.26356 18.31869c.657.38973 1.18635-.67065.5329-1.05826z" fill="#fff"/><path d="m950.18063 632.74567a8.991 8.991 0 0 1 -8.52045-.43252c-.65175-.39787-1.18041.663-.53289 1.05826a10.07516 10.07516 0 0 0 9.42483.49938.61233.61233 0 0 0 .37681-.74831.59543.59543 0 0 0 -.7483-.37681z" fill="#fff"/><path d="m858.461 659.988c.3999.26.7998.52 1.20019.79a118.40547 118.40547 0 0 1 15.1396 11.82c.37012.33.74024.67 1.1001 1.01a124.82722 124.82722 0 0 1 27.10986 37.11 121.22215 121.22215 0 0 1 6.64014 17.18c2.4502 8.13 4.46 17.14 9.31006 23.79a20.79633 20.79633 0 0 0 1.62012 2h43.83007c.09961-.05.19971-.09.29981-.14l1.75.08c-.07031-.31-.1499-.63-.22022-.94-.04-.18-.08984-.36-.12988-.54-.02978-.12-.06006-.24-.08008-.35-.00976-.04-.02-.08-.02978-.11-.02-.11-.0503-.21-.07031-.31q-.65993-2.685-1.35987-5.37c0-.01 0-.01-.00976-.02-3.59034-13.63-8.3501-27.08-15-39.38-.2002-.37-.39991-.75-.62012-1.12a115.674 115.674 0 0 0 -10.39014-15.76 102.26 102.26 0 0 0 -6.81006-7.79 85.03677 85.03677 0 0 0 -21.27978-15.94c-15.72022-8.3-33.91992-11.48-50.72022-6.41-.42968.13-.85009.26-1.27973.4z" fill="#f0f0f0"/><path d="m858.55949 660.54431a105.86972 105.86972 0 0 1 56.88764 31.72816 45.59157 45.59157 0 0 1 8.18056 11.71014 26.1486 26.1486 0 0 1 2.10937 13.59926c-.40143 4.33627-1.31421 8.72531-.65457 13.08366a16.01082 16.01082 0 0 0 7.24486 10.9071c4.67616 3.12574 10.19656 4.38485 15.63785 5.42855 6.04151 1.15883 12.33511 2.26677 17.37736 6.04049.61093.45724 1.28469-.51747.67468-.974-8.77265-6.56562-20.52867-5.18784-30.12561-9.82289-4.47812-2.16279-8.33158-5.68823-9.44092-10.69927-.97006-4.38194-.03267-8.90877.41174-13.29582a27.90246 27.90246 0 0 0 -1.56708-13.374 42.148 42.148 0 0 0 -7.70016-11.98146 102.71248 102.71248 0 0 0 -24.78221-20.40579 107.74717 107.74717 0 0 0 -34.16254-13.12569c-.746-.14794-.83214 1.03459-.091 1.18156z" fill="#fff"/><path d="m910.87542 686.73935a15.88384 15.88384 0 0 0 -.364-20.56469c-.50575-.57043-1.41593.18868-.90952.75987a14.70808 14.70808 0 0 1 .2995 19.13014c-.48607.58739.49073 1.25871.974.67468z" fill="#fff"/><path d="m926.23018 715.41a30.61484 30.61484 0 0 1 -21.53141-5.847c-.61253-.45506-1.28648.51951-.67468.974a31.844 31.844 0 0 0 22.41775 6.03876c.75924-.08439.54346-1.24974-.21166-1.1658z" fill="#fff"/><path d="m882.05536 667.75516a8.991 8.991 0 0 1 -7.06351 4.78455c-.75993.07473-.54333 1.24.21166 1.16581a10.07517 10.07517 0 0 0 7.82586-5.27568.61233.61233 0 0 0 -.14966-.82434.59543.59543 0 0 0 -.82435.14966z" fill="#fff"/><path d="m644.013 177.9134a11.55371 11.55371 0 0 0 3.48192 17.37071l-6.75629 40.49833 19.50168-8.65478 3.42607-37.131a11.61633 11.61633 0 0 0 -19.65338-12.08326z" fill="#9e616a"/></g><path d="m614.147 592.883-15.946-.001-7.586-61.506 23.535.001z" fill="#9e616a"/><path d="m823.52267 753.65224-51.41667-.00191v-.65033a20.01386 20.01386 0 0 1 20.0128-20.01248h.00127l31.40355.00127z" fill="#2f2e41" transform="translate(-205.30906 -145.31197)"/><path d="m507.147 592.883-15.946-.001-7.586-61.506 23.535.001z" fill="#9e616a"/><path d="m716.52267 753.65224-51.41667-.00191v-.65033a20.01386 20.01386 0 0 1 20.0128-20.01248h.00127l31.40355.00127z" fill="#2f2e41" transform="translate(-205.30906 -145.31197)"/><path d="m705.80906 451.188-5.96041 7.83915s-.53959 3.66085-9.58036 33.48559l-4.95923 224.17526h30l40.10008-179.36611 41.61813 182.96453 26.006 1.53431-1.223-207.95912s3.285-42.783-8.35809-50.72832-107.64312-11.94529-107.64312-11.94529z" fill="#2f2e41" transform="translate(-205.30906 -145.31197)"/><circle cx="540.73169" cy="86.01289" fill="#9e616a" r="31.4805"/><path d="m777.71091 236.25346-.52-1.03956c-.80371-1.60791-7.46045-14.97509-8.2959-18.41211l-8.37744.98536-21.81543.00341 3.03125-4.54687-8.01416 1.04541a18.39333 18.39333 0 0 0 -8.16675 3.07812 12.51308 12.51308 0 0 0 -3.70434 3.81934c-2.8628 4.90234-7.23657 12.9209-7.28052 13.00147l-.41821.76709-3.63452-6.11377c-.04761-.23731-4.552-23.731 10.52246-31.69873.77758-1.57911 7.40283-14 23.06054-13.16163a9.927 9.927 0 0 1 6.74927-3.355c3.57593-.18652 7.28784 1.6919 11.01538 5.60645 4.95166 5.19922 11.7334 12.31933 15.835 20.2251l1.13159 1.61425a12.723 12.723 0 0 1 2.26368 7.89942 26.37238 26.37238 0 0 1 -.89869 13.45264z" fill="#2f2e41" transform="translate(-205.30906 -145.31197)"/><path d="m770.02681 268.7288 17.4198 9.62779 34.21783 9.581-10.21365 89.54571 1.85827 88.20473s-57.92082 39.67831-113.46041-6.66085v-111.02418l3.28564-60.06537s13.29045-3.77562 19.98261 2.73739l12.69216-16.487z" fill="#e4e4e4" transform="translate(-205.30906 -145.31197)"/><path d="m505.5 150.876-7.675-8.25-42.294-4.791 3.969-64.959-23.059-16.45-16.941 91.45 78.258 54.815z" fill="#e4e4e4"/><path d="m796.542 494.83593a11.55369 11.55369 0 0 1 11.22028-13.71024l13.02142-38.93847 13.167 16.78843-14.384 34.40278a11.61634 11.61634 0 0 1 -23.02468 1.4575z" fill="#9e616a" transform="translate(-205.30906 -145.31197)"/><path d="m808.80906 298.188 12.85538-10.25041s13.14462 7.25041 17.14462 20.25041 11 87 11 87l-19 95-21.248-14.73622 10.248-75.26378-18-55z" fill="#e4e4e4" transform="translate(-205.30906 -145.31197)"/><path d="m118.14267 0h324.20229v78.78223h-324.20229z" fill="#e6e6e6"/><path d="m331.95817 215.58747h307.18944v-61.76875h-307.18944z" fill="#fff" transform="translate(-205.30906 -145.31197)"/><circle cx="185.15875" cy="39.39113" fill="#6c63ff" r="23.53234"/><path d="m241.43181 30.1828h157.42938v5.11573h-157.42938z" fill="#6c63ff"/><path d="m241.43181 43.4837h157.42938v5.11573h-157.42938z" fill="#6c63ff"/><path d="m205.30906 265.05374 274.314 20.00879v72.02436l-274.314-5.09394z" fill="#e6e6e6" transform="translate(-205.30906 -145.31197)"/><path d="m213.95028 342.81775 259.6838 6.35125v-56.732l-259.6838-17.4165z" fill="#fff" transform="translate(-205.30906 -145.31197)"/><path d="m270.9457 286.6233a20.6486 20.6486 0 0 1 8.55537 2.477 23.8163 23.8163 0 0 1 6.91581 5.70319 26.93424 26.93424 0 0 1 4.627 8.072 28.22787 28.22787 0 0 1 1.69014 9.64449 26.93413 26.93413 0 0 1 -1.69014 9.48924 23.921 23.921 0 0 1 -4.627 7.65326 20.88621 20.88621 0 0 1 -6.91581 5.07041 19.40656 19.40656 0 0 1 -8.55537 1.69367 20.48626 20.48626 0 0 1 -8.65181-2.22294 23.603 23.603 0 0 1 -7.1381-5.61145 26.82446 26.82446 0 0 1 -4.8493-8.19194 28.21724 28.21724 0 0 1 -1.78541-9.89971 26.89277 26.89277 0 0 1 1.78541-9.74211 23.77583 23.77583 0 0 1 4.85047-7.745 20.73928 20.73928 0 0 1 7.1381-4.95751 19.396 19.396 0 0 1 8.65064-1.4326z" fill="#e6e6e6" transform="translate(-205.30906 -145.31197)"/><path d="m322.0368 304.44443 126.38871 6.58649v4.787l-126.38871-6.14076z" fill="#e6e6e6" transform="translate(-205.30906 -145.31197)"/><path d="m322.0368 318.0514 126.38871 5.4256v4.787l-126.38871-4.97988z" fill="#e6e6e6" transform="translate(-205.30906 -145.31197)"/><path d="m205.30906 411.36656 274.314-5.09277v72.02436l-274.314 20.00879z" fill="#e6e6e6" transform="translate(-205.30906 -145.31197)"/><path d="m213.95028 488.339 259.6838-17.41654v-56.72607l-259.6838 6.35125z" fill="#fff" transform="translate(-205.30906 -145.31197)"/><path d="m248.5399 451.71229a28.18078 28.18078 0 0 1 2.18412-9.81974 26.49781 26.49781 0 0 1 5.16686-7.94142 23.201 23.201 0 0 1 7.3404-5.24566 20.24279 20.24279 0 0 1 8.7118-1.7807 19.443 19.443 0 0 1 8.45775 2.13 21.1825 21.1825 0 0 1 6.69 5.42209 24.31932 24.31932 0 0 1 4.30827 7.89084 27.20924 27.20924 0 0 1 1.30906 9.581 28.19721 28.19721 0 0 1 -2.06768 9.568 26.62605 26.62605 0 0 1 -4.93986 7.852 23.41734 23.41734 0 0 1 -7.12752 5.35974 20.38864 20.38864 0 0 1 -8.63535 2.043 19.41486 19.41486 0 0 1 -8.57419-1.88185 21.02727 21.02727 0 0 1 -6.9158-5.32917 24.18434 24.18434 0 0 1 -4.52233-8.00493 27.17635 27.17635 0 0 1 -1.38553-9.8432z" fill="#e6e6e6" transform="translate(-205.30906 -145.31197)"/><path d="m322.0368 440.07655 126.38871-4.97985v4.787l-126.38871 5.42558z" fill="#e6e6e6" transform="translate(-205.30906 -145.31197)"/><path d="m322.0368 453.68234 126.38871-6.13954v4.787l-126.38871 6.58645z" fill="#e6e6e6" transform="translate(-205.30906 -145.31197)"/><path d="m993.69094 754.688h-381a1 1 0 0 1 0-2h381a1 1 0 0 1 0 2z" fill="#cacaca" transform="translate(-205.30906 -145.31197)"/></svg>